<?xml version="1.0" encoding="UTF-8"?>
<svg xmlns="http://www.w3.org/2000/svg" viewBox="0 0 700.5 521.94">
  <defs>
    <style>
      .cls-1 {
        opacity: 0;
      }

      .cls-1, .cls-2 {
        fill: none;
        stroke: #000;
        stroke-miterlimit: 10;
        stroke-width: .5px;
      }
    </style>
  </defs>
  <g id="Calque_1" data-name="Calque 1">
    <g>
      <path d="m267.33,222.73l5.96,9.58h.04v-9.58h2.94v14.28h-3.14l-5.94-9.56h-.04v9.56h-2.94v-14.28h3.12Z"/>
      <path d="m289.71,222.73v2.64h-7.54v3.06h6.92v2.44h-6.92v3.5h7.7v2.64h-10.84v-14.28h10.68Z"/>
      <path d="m302.49,235.92c-1.08.94-2.57,1.41-4.48,1.41s-3.43-.47-4.49-1.4-1.59-2.37-1.59-4.32v-8.88h3.14v8.88c0,.39.03.77.1,1.14s.21.7.42.99c.21.29.51.52.89.7s.89.27,1.53.27c1.12,0,1.89-.25,2.32-.75s.64-1.28.64-2.35v-8.88h3.14v8.88c0,1.93-.54,3.37-1.62,4.31h0Z"/>
      <path d="m314.51,222.73c.64,0,1.22.1,1.73.31.51.21.95.49,1.32.85s.65.78.84,1.25.29.98.29,1.53c0,.84-.18,1.57-.53,2.18-.35.61-.93,1.08-1.73,1.4v.04c.39.11.71.27.96.49s.46.48.62.78.28.63.35.99.12.72.15,1.08c.01.23.03.49.04.8s.04.62.07.94.09.62.16.91c.07.29.18.53.33.73h-3.14c-.17-.45-.28-.99-.32-1.62-.04-.63-.1-1.23-.18-1.8-.11-.75-.33-1.29-.68-1.64s-.91-.52-1.7-.52h-3.14v5.58h-3.14v-14.28h7.7Zm-1.12,6.46c.72,0,1.26-.16,1.62-.48.36-.32.54-.84.54-1.56s-.18-1.2-.54-1.51-.9-.47-1.62-.47h-3.44v4.02h3.44Z"/>
      <path d="m321.11,226.96c.32-.91.78-1.71,1.38-2.39s1.34-1.21,2.21-1.6,1.86-.58,2.95-.58,2.09.19,2.96.58,1.6.92,2.2,1.6c.6.68,1.06,1.48,1.38,2.39s.48,1.9.48,2.97-.16,2.01-.48,2.91c-.32.9-.78,1.68-1.38,2.35-.6.67-1.33,1.19-2.2,1.57-.87.38-1.85.57-2.96.57s-2.08-.19-2.95-.57c-.87-.38-1.61-.9-2.21-1.57-.6-.67-1.06-1.45-1.38-2.35-.32-.9-.48-1.87-.48-2.91s.16-2.06.48-2.97Zm2.87,4.72c.14.57.36,1.08.67,1.53s.71.82,1.2,1.09c.49.27,1.09.41,1.8.41s1.31-.14,1.8-.41.89-.64,1.2-1.09.53-.96.67-1.53c.14-.57.21-1.15.21-1.75s-.07-1.23-.21-1.82c-.14-.59-.36-1.11-.67-1.57s-.71-.83-1.2-1.1c-.49-.27-1.09-.41-1.8-.41s-1.31.14-1.8.41-.89.64-1.2,1.1-.53.98-.67,1.57c-.14.59-.21,1.19-.21,1.82s.07,1.18.21,1.75Z"/>
      <path d="m339.21,233.49c.17.33.4.6.69.81.29.21.62.36,1.01.46s.79.15,1.2.15c.28,0,.58-.02.9-.07s.62-.14.9-.27.51-.32.7-.55.28-.53.28-.89c0-.39-.12-.7-.37-.94s-.57-.44-.97-.6-.85-.3-1.36-.42-1.02-.25-1.54-.4c-.53-.13-1.05-.3-1.56-.49s-.96-.44-1.36-.75-.72-.69-.97-1.15c-.25-.46-.37-1.02-.37-1.67,0-.73.16-1.37.47-1.91.31-.54.72-.99,1.23-1.35s1.08-.63,1.72-.8,1.28-.26,1.92-.26c.75,0,1.46.08,2.15.25s1.3.44,1.83.81.96.85,1.27,1.43.47,1.28.47,2.11h-3.04c-.03-.43-.12-.78-.27-1.06s-.36-.5-.61-.66-.54-.27-.87-.34c-.33-.07-.68-.1-1.07-.1-.25,0-.51.03-.76.08s-.48.15-.69.28-.38.3-.51.5-.2.45-.2.76c0,.28.05.51.16.68.11.17.32.33.63.48s.75.29,1.3.44,1.28.33,2.17.56c.27.05.64.15,1.11.29.47.14.94.36,1.41.67s.87.72,1.21,1.23.51,1.17.51,1.97c0,.65-.13,1.26-.38,1.82-.25.56-.63,1.04-1.13,1.45s-1.12.72-1.86.95-1.6.34-2.57.34c-.79,0-1.55-.1-2.29-.29-.74-.19-1.39-.5-1.96-.91-.57-.41-1.02-.94-1.35-1.58-.33-.64-.49-1.4-.48-2.28h3.04c0,.48.09.89.26,1.22h0Z"/>
      <path d="m358.95,226.54c-.19-.3-.42-.56-.7-.79s-.6-.4-.95-.53-.72-.19-1.11-.19c-.71,0-1.31.14-1.8.41s-.89.64-1.2,1.1-.53.98-.67,1.57c-.14.59-.21,1.19-.21,1.82s.07,1.18.21,1.75c.14.57.36,1.08.67,1.53s.71.82,1.2,1.09,1.09.41,1.8.41c.96,0,1.71-.29,2.25-.88.54-.59.87-1.36.99-2.32h3.04c-.08.89-.29,1.7-.62,2.42s-.77,1.33-1.32,1.84c-.55.51-1.19.89-1.92,1.16s-1.54.4-2.42.4c-1.09,0-2.08-.19-2.95-.57-.87-.38-1.61-.9-2.21-1.57-.6-.67-1.06-1.45-1.38-2.35-.32-.9-.48-1.87-.48-2.91s.16-2.06.48-2.97.78-1.71,1.38-2.39,1.34-1.21,2.21-1.6,1.86-.58,2.95-.58c.79,0,1.53.11,2.23.34s1.33.56,1.88.99c.55.43,1.01.97,1.37,1.61s.59,1.37.68,2.2h-3.04c-.05-.36-.17-.69-.36-.99h0Z"/>
      <path d="m367.75,222.73v14.28h-3.14v-14.28h3.14Z"/>
      <path d="m381.19,222.73v2.64h-7.54v3.06h6.92v2.44h-6.92v3.5h7.7v2.64h-10.84v-14.28h10.68Z"/>
      <path d="m386.59,222.73l5.96,9.58h.04v-9.58h2.94v14.28h-3.14l-5.94-9.56h-.04v9.56h-2.94v-14.28h3.12Z"/>
      <path d="m407.45,226.54c-.19-.3-.42-.56-.7-.79s-.6-.4-.95-.53-.72-.19-1.11-.19c-.71,0-1.31.14-1.8.41s-.89.64-1.2,1.1-.53.98-.67,1.57c-.14.59-.21,1.19-.21,1.82s.07,1.18.21,1.75c.14.57.36,1.08.67,1.53s.71.82,1.2,1.09,1.09.41,1.8.41c.96,0,1.71-.29,2.25-.88.54-.59.87-1.36.99-2.32h3.04c-.08.89-.29,1.7-.62,2.42s-.77,1.33-1.32,1.84c-.55.51-1.19.89-1.92,1.16s-1.54.4-2.42.4c-1.09,0-2.08-.19-2.95-.57-.87-.38-1.61-.9-2.21-1.57-.6-.67-1.06-1.45-1.38-2.35-.32-.9-.48-1.87-.48-2.91s.16-2.06.48-2.97.78-1.71,1.38-2.39,1.34-1.21,2.21-1.6,1.86-.58,2.95-.58c.79,0,1.53.11,2.23.34s1.33.56,1.88.99c.55.43,1.01.97,1.37,1.61s.59,1.37.68,2.2h-3.04c-.05-.36-.17-.69-.36-.99h0Z"/>
      <path d="m423.79,222.73v2.64h-7.54v3.06h6.92v2.44h-6.92v3.5h7.7v2.64h-10.84v-14.28h10.68Z"/>
      <path d="m428.47,233.49c.17.33.4.6.69.81.29.21.62.36,1.01.46s.79.15,1.2.15c.28,0,.58-.02.9-.07s.62-.14.9-.27.51-.32.7-.55.28-.53.28-.89c0-.39-.12-.7-.37-.94s-.57-.44-.97-.6-.85-.3-1.36-.42-1.02-.25-1.54-.4c-.53-.13-1.05-.3-1.56-.49s-.96-.44-1.36-.75-.72-.69-.97-1.15-.37-1.02-.37-1.67c0-.73.16-1.37.47-1.91.31-.54.72-.99,1.23-1.35s1.08-.63,1.72-.8,1.28-.26,1.92-.26c.75,0,1.46.08,2.15.25s1.3.44,1.83.81.96.85,1.27,1.43.47,1.28.47,2.11h-3.04c-.03-.43-.12-.78-.27-1.06s-.36-.5-.61-.66-.54-.27-.87-.34c-.33-.07-.68-.1-1.07-.1-.25,0-.51.03-.76.08s-.48.15-.69.28-.38.3-.51.5-.2.45-.2.76c0,.28.05.51.16.68s.32.33.63.48.75.29,1.3.44c.55.15,1.28.33,2.17.56.27.05.64.15,1.11.29.47.14.94.36,1.41.67s.87.72,1.21,1.23.51,1.17.51,1.97c0,.65-.13,1.26-.38,1.82-.25.56-.63,1.04-1.13,1.45s-1.12.72-1.86.95-1.6.34-2.57.34c-.79,0-1.55-.1-2.29-.29-.74-.19-1.39-.5-1.96-.91-.57-.41-1.02-.94-1.35-1.58s-.49-1.4-.48-2.28h3.04c0,.48.09.89.26,1.22h0Z"/>
    </g>
    <g>
      <path d="m292.06,243.94c.54,0,.99.08,1.37.23s.68.36.92.62c.24.26.41.55.52.88s.16.67.16,1.02-.05.68-.16,1.01-.28.63-.52.88c-.24.26-.54.46-.92.62-.38.16-.83.23-1.37.23h-1.98v3.07h-1.88v-8.57h3.86Zm-.52,4.03c.22,0,.42-.02.62-.05.2-.03.38-.09.53-.19.15-.09.27-.22.37-.39s.14-.39.14-.66-.05-.49-.14-.66c-.09-.17-.21-.3-.37-.39-.15-.09-.33-.15-.53-.19-.2-.03-.41-.05-.62-.05h-1.46v2.57h1.46Z"/>
      <path d="m299.59,243.94l3.2,8.57h-1.96l-.65-1.91h-3.2l-.67,1.91h-1.9l3.24-8.57h1.94Zm.11,5.26l-1.08-3.14h-.02l-1.12,3.14h2.22,0Z"/>
      <path d="m308.16,243.94c.38,0,.73.06,1.04.19s.57.29.79.51.39.47.5.75c.12.28.17.59.17.92,0,.5-.11.94-.32,1.31-.21.37-.56.65-1.04.84v.02c.23.06.42.16.58.29s.28.29.37.47c.1.18.17.38.21.59s.07.43.09.65c0,.14.02.3.02.48s.02.37.04.56c.02.19.05.37.1.55.04.17.11.32.2.44h-1.88c-.1-.27-.17-.6-.19-.97s-.06-.74-.11-1.08c-.06-.45-.2-.78-.41-.98-.21-.21-.55-.31-1.02-.31h-1.88v3.35h-1.88v-8.57h4.62Zm-.67,3.88c.43,0,.76-.1.97-.29.22-.19.32-.5.32-.94s-.11-.72-.32-.91c-.22-.19-.54-.28-.97-.28h-2.06v2.41h2.06Z"/>
      <g>
        <path d="m311.31,245.53v-1.58h7.02v1.58h-2.57v6.98h-1.88v-6.98h-2.57,0Z"/>
        <path d="m324.53,243.94v8.57h-1.88v-8.57h1.88Z"/>
        <path d="m328.07,243.94v8.57h-1.88v-8.57h1.88Z"/>
        <path d="m336.82,243.74l-3.35,8.96h-1.36l3.34-8.96h1.37Z"/>
        <path d="m340.18,245.53v-1.58h7.02v1.58h-2.57v6.98h-1.88v-6.98h-2.57,0Z"/>
        <path d="m352.8,243.94c.38,0,.73.06,1.04.19.31.12.57.29.79.51s.39.47.5.75.17.59.17.92c0,.5-.11.94-.32,1.31-.21.37-.56.65-1.04.84v.02c.23.06.42.16.58.29.15.13.28.29.37.47.1.18.17.38.21.59s.07.43.09.65c0,.14.02.3.02.48s.02.37.04.56c.02.19.05.37.1.55.04.17.11.32.2.44h-1.88c-.1-.27-.17-.6-.19-.97-.02-.38-.06-.74-.11-1.08-.06-.45-.2-.78-.41-.98s-.55-.31-1.02-.31h-1.88v3.35h-1.88v-8.57h4.62Zm-.67,3.88c.43,0,.76-.1.97-.29.22-.19.32-.5.32-.94s-.11-.72-.32-.91c-.22-.19-.54-.28-.97-.28h-2.06v2.41h2.06Z"/>
        <path d="m363.25,243.94v1.58h-4.52v1.84h4.15v1.46h-4.15v2.1h4.62v1.58h-6.5v-8.57h6.41-.01Z"/>
      </g>
      <path d="m368.9,243.94l3.2,8.57h-1.96l-.65-1.91h-3.2l-.67,1.91h-1.9l3.24-8.57h1.94Zm.11,5.26l-1.08-3.14h-.02l-1.12,3.14h2.22,0Z"/>
      <g>
        <path d="m371.07,245.53v-1.58h7.02v1.58h-2.57v6.98h-1.88v-6.98h-2.57,0Z"/>
        <path d="m381.72,243.94l2,5.89h.02l1.9-5.89h2.65v8.57h-1.76v-6.07h-.02l-2.1,6.07h-1.45l-2.1-6.01h-.02v6.01h-1.76v-8.57h2.65,0Z"/>
        <path d="m396.36,243.94v1.58h-4.52v1.84h4.15v1.46h-4.15v2.1h4.62v1.58h-6.5v-8.57h6.41-.01Z"/>
        <path d="m399.6,243.94l3.58,5.75h.02v-5.75h1.76v8.57h-1.88l-3.56-5.74h-.02v5.74h-1.76v-8.57h1.87,0Z"/>
        <path d="m405.95,245.53v-1.58h7.02v1.58h-2.57v6.98h-1.88v-6.98h-2.57,0Z"/>
      </g>
    </g>
  </g>
  <g id="Calque_3" data-name="Calque 3">
    <g>
      <path class="cls-2" d="m344.18,275.94l58,89.36s12.13,16.94,17.46,17.6,11.65,3,22.98-2c11.32-4.99,85.91-36.63,85.91-36.63,0,0,50.95-21.98,74.59-39.29,23.64-17.32,62.6-47.62,62.6-47.62,0,0,4.67-7.89,0-14.24-4.67-6.34-30.73-37.1-35.42-43.72-4.69-6.62-55.67-78.23-58.43-80s-6.79-6.04-12.08-3.52-46.95,29.19-53.79,33.97c-6.85,4.78-105.55,68.62-105.55,68.62,0,0-37.26,26.87-47.03,33.95-9.77,7.09-7.94,9.77-9.22,12.95s0,10.55,0,10.55Z"/>
      <path class="cls-2" d="m491.44,175.74s3.52-5.44,8.32-6.4,13.45,0,13.45,0c0,0,19.21,19.53,20.81,23.05s5.76,9.61,5.44,14.73-2.88,11.21-2.88,11.21l-14.73,9.29s-16.97-4.8-23.69-12.49c-6.72-7.68-11.85-16.65-12.17-24.33s5.44-15.05,5.44-15.05Z"/>
      <path class="cls-2" d="m498.16,215.12s12.57,16.4,15.75,18.2,10.37,4.01,13.28,3.6c2.9-.41,13.55-11.62,14.11-13.41s1.22-6.91-1.81-18.39"/>
      <path class="cls-2" d="m441.93,211.73s7.04-11.03,17.15-13.48c10.11-2.45,19.3,4.29,24.81,11.03,5.51,6.74,4.59,15.62,11.03,22.36,6.43,6.74,0,12.56,0,12.56,0,0-8.88,12.56-17.46,13.17-8.58.61-13.17-3.94-16.85-7.79-3.68-3.85-14.09-17.02-16.23-19.78-2.14-2.76-2.45-18.07-2.45-18.07Z"/>
      <path class="cls-2" d="m498.16,236.97s1.14,5.14,3.13,7.13c1.99,1.99-2.15,7.12-6.79,11.76-4.64,4.64-9.44,9.94-18.39,7.79s-17.5-16.29-17.5-16.29"/>
      <path class="cls-2" d="m399.24,235.81s9.94-15.24,23.86-10.11c0,0,1.99,3.58,4.97,4.52,2.98.94,15.74,10.05,24.02,31.92,8.28,21.87-18.72,21.21-22.37,20.21-3.64-.99-19.05-9.91-22.37-14.07s-10.11-12.4-9.44-18.71c.66-6.32,1.33-13.77,1.33-13.77Z"/>
      <path class="cls-2" d="m528.22,150.22s-3.08,1.4-1.68,5.04c1.4,3.64,14.85,32.23,17.66,33.63s13.73,12.61,18.78,11.77,21.58-5.04,21.3-14.29c-.28-9.25-1.68-12.75-13.73-27.19s-14.01-23.68-18.78-22.28c-4.76,1.4-13.45,10.93-23.54,13.31Z"/>
      <path class="cls-2" d="m543.16,187.84s9.79,15.63,12.07,16.3,9.13,3.9,12.89,3.63c3.76-.27,10.08-1.48,12.37-5.65,2.29-4.17,3.79-14.28,3.79-14.28"/>
      <path class="cls-2" d="m407.35,268.29s16.62,15.16,19.41,19.74c2.79,4.58,7.76,4.38,10.94,4.38s12.73-2.98,15.12-8.75c2.39-5.77.83-16.71.83-16.71"/>
      <path class="cls-2" d="m579.54,225.73s5.19-11.35,12.31-13.08,20.66,0,23.89,3.27c3.23,3.27,18.05,17.66,18.05,21.04s3.08,11.27-6.35,17.62c-9.43,6.35-21.74,10-28.85,5-7.12-5-13.27-11.16-15.77-12.5s-3.27-21.35-3.27-21.35Z"/>
      <path class="cls-2" d="m537.8,246.89s14.27-5.19,17.42-7.89,14.32,8.08,16.43,11.73,17.89,22.7,18.66,27.12c.77,4.42,2.31,8.46-.96,10.2s-13.66,8.46-23.08,4.23-25.49-25.39-26.79-29.24c-1.3-3.85-1.68-16.16-1.68-16.16Z"/>
      <path class="cls-2" d="m493.75,274.98s7.69-9.62,20.01-8.08c12.31,1.54,19.81,12.7,19.81,12.7,0,0,11.54,12.5,11.35,20.01-.19,7.5-2.69,11.73-11.35,13.47-8.66,1.73-14.43,2.12-17.5,0-3.08-2.12-14.08-12.12-18.29-15-4.22-2.89-8.06-5.39-8.06-11.35s4.04-11.73,4.04-11.73Z"/>
      <path class="cls-2" d="m450.85,298.83s2.31-8.22,16.35-5.17c14.04,3.05,12.7,9.4,17.31,11.71s11.32,10.39,13.26,14.81c1.94,4.42,3.67,8.85-2.29,12.5-5.96,3.65-17.31,7.69-26.93,4.42-9.62-3.27-12.31-8.66-15.77-14.43-3.46-5.77-7.12-9.23-6.73-14.04s4.81-9.81,4.81-9.81Z"/>
      <path class="cls-2" d="m401.35,315.65s7.67-8.37,10.11-9.77,10.98.17,13.25,2.96c2.27,2.79,4.53,10.98,16.91,19.7,12.38,8.72,11.16,17.26,10.29,19.88-.87,2.62-8.54,15.52-31.38,10.11,0,0-7.15,3.31-15.17-10.98-8.02-14.3-10.98-17.44-9.24-22.67s5.23-9.24,5.23-9.24Z"/>
      <path class="cls-2" d="m357.06,259.5s2.96-6.45,12.21-6.63c9.24-.17,10.29,4.01,21.97,16.22,11.68,12.21,13.92,11.51,16.12,17.44s4.46,7.85,1.15,12.73c-3.31,4.88-5.23,8.37-17.26,8.02-12.03-.35-9.94,2.66-14.47.02s-7.85-9.44-9.07-11.18-12.38-22.14-12.38-22.14c0,0-1.05-7.32,1.74-14.47Z"/>
      <path class="cls-2" d="m582.81,247.08s18.15,21.83,24.09,24.45c5.95,2.62,12.4,4.53,17.8,0s10.29-7.36,10.11-9.61,2.82-16.29-1.03-24.96"/>
      <path class="cls-2" d="m537.8,246.89s-1.12,16.26,0,19.23c1.12,2.97,16.47,24.59,19.95,30.17,3.49,5.58,12.38,7.5,12.38,7.5,0,0,3.49,2.62,10.64-2.09,7.15-4.71,11.51-6.1,12.03-9.59s-2.49-14.25-2.49-14.25"/>
      <path class="cls-2" d="m491.72,292.98s21.6,29.98,25.6,31.73,14.11,4.88,17.6,3.49c3.49-1.39,7.46-3.66,10.01-8.72,2.55-5.06,1.98-9.43,0-19.88"/>
      <path class="cls-2" d="m446.58,312.43s2.26,10.53,4.56,13.6,15.12,22.3,19.74,24.87c4.61,2.56,7.95,4.1,16.15,0,8.2-4.1,10.5-2.56,12.56-7.43,2.05-4.87,0-18.2,0-18.2"/>
      <path class="cls-2" d="m452.42,343.21s.25,12.05,0,14.1.77,10.77-24.35,14.36c0,0-14.39.89-22.71-24.11"/>
      <path class="cls-2" d="m367.7,296.12s5.87,14.11,13.03,18.39c7.16,4.28,18.95,3.36,18.95,3.36"/>
      <path class="cls-2" d="m413.04,305.36s-1.11-6.3-2.87-11.26"/>
    </g>
    <rect class="cls-1" x=".25" y=".25" width="700" height="480"/>
  </g>
  <g id="Calque_4" data-name="Calque 4">
    <g>
      <path d="m284.33,439.56c16.42,11.21,43.41-11.2,49.98-35.85,3.05-10.16,5.46-23.27.94-31.1,0,0,50.89,26.54,55.29,40.06,4.4,13.52,2.86,24.07-6.88,38.84-9.74,14.77-24.83,22-43.38,16.97-18.55-5.03-55.95-28.92-55.95-28.92Z"/>
      <path class="cls-2" d="m292.43,443.63l-34.83-17.8s-60.75-30.77-41.9-66.84c13.09-25.04,28.64-26.5,42.7-24.83,8.01.95,15.72,3.65,22.73,7.64,17.62,10.03,60.58,34.53,70.41,39.88l34.53,28.21"/>
    </g>
    <g>
      <path d="m99.09,174.73s-11.56,48.43,38.29,87.74c49.85,39.31,84,26.23,90.06,24.27l-71.41,68.65c-11.05,10.62-24.39,18.65-39.09,22.97-19.81,5.82-46.38,6.6-71.41-15.21-30.27-26.38-32.98-55.09-30.78-72.87,1.16-9.37,5.1-18.2,11.12-25.6l73.21-89.96Z"/>
      <path class="cls-2" d="m200.7,312.46l128.65-125.21c10.24-9.97,18.81-21.57,24.86-34.52,27.58-58.96-.46-126.1-75.34-138.42,0,0-43-8.93-81.08,37.31-38.08,46.24-104.13,129.79-104.13,129.79"/>
    </g>
    <g>
      <path class="cls-2" d="m413.33,90.83s-49.31,1.06-1.98-32.15c47.33-33.2,92.09-15.02,92.09-15.02,0,0,19.24,7.48-7.61,24.24s-55.79,22.65-82.5,22.92Z"/>
      <path class="cls-2" d="m391.26,83.64l7.43,31.63s1.83,8.62,7.63,10.83,44.15,12.93,83.32-10.18c0,0,6.65-3.43,12.55-7.13,6-3.78,12.14-10.13,14.3-17.01l-6.63-41.75"/>
    </g>
    <g>
      <path class="cls-2" d="m546.86,374.49c13.17-8.91,33.5-16.02,55.06,1.29,24.76,30.85-19.81,77-50.14,73.84-5.11-.39-39.38-8.25-28.82-42.86,4.01-13.15,12.51-24.57,23.9-32.27Z"/>
      <path class="cls-2" d="m601.92,375.78s-22.58-24.8-44.93-20.44c-28.28,5.52-40.85,28.69-43.99,43.39-2.03,9.48.74,29.08,16.68,40.72"/>
      <polyline class="cls-2" points="608.71 391.45 525.85 422.57 521.35 424.06"/>
      <polyline class="cls-2" points="609.16 396.76 528.6 426.59 522.52 428.68"/>
    </g>
    <path d="m619.34,71.32s-1.87-24.98-22.32-18.15c0,0-14.15-.34-13.89,30s1.33,43.32,18.39,44.73c17.06,1.42,21.65-17.32,17.82-56.58Z"/>
  </g>
</svg>