<?xml version="1.0" encoding="UTF-8"?>
<svg xmlns="http://www.w3.org/2000/svg" viewBox="0 0 701.4 480.67">
  <defs>
    <style>
      .cls-1, .cls-2 {
        fill: none;
      }

      .cls-2 {
        stroke: #000;
        stroke-miterlimit: 10;
        stroke-width: .25px;
      }
    </style>
  </defs>
  <g id="Calque_1" data-name="Calque 1">
    <g id="Calque_5" data-name="Calque 5">
      <path class="cls-2" d="m232.23,53.4C245.69,48.79,266.64.1,266.64.1c0,0-15.46,49.52-26.34,54.68"/>
      <path class="cls-2" d="m213.17,62.05S225.74,39.22,188.33.1"/>
      <path class="cls-2" d="m192.03.1s28.43,24.95,33.82,54.68"/>
      <path class="cls-2" d="m241.4,70.33c-.4.83-.8,1.47-1.2,2.12-4.39,7-7.18,6.26-7.18,6.26,17.86,30.47,32.82,54.31,57.96,121.51,25.14,67.2,77.61,135.59,77.61,135.59,0,0-1.5-1.38-7.78-8.47-6.28-7.18-58.16-78.52-80.9-142.77-22.74-64.25-53.87-101.25-58.26-101.25-1.4,0-3.59.64-5.79,1.56-3.99,1.56-8.28,3.96-9.48,4.6-.2.09-.4.28-.5.55-1.6,3.13-13.77,28.26-13.77,64.34,0,38.57-29.83,53.02-29.83,53.02,0,0-48.38,21.72-54.96,66.74,0,0-.4-41.05,50.38-68.67,6.98-3.87,13.17-8.93,17.66-15.19,6.28-8.65,12.97-22.18,13.17-40.13.4-29.09,6.98-54.4,8.88-61.21.3-1.2.4-2.49.2-3.68-.7-4.14-2.69-13.72-5.49-15.28-3.49-1.93-68.33-8.56-99.75-28.9C60.95,20.72,1.49,16.67,1.49,16.67c0,0,57.66,4.23,92.17,21.08,34.51,16.85,89.78,26.6,99.46,24.3"/>
      <path class="cls-2" d="m203.4,61.22c-28.43,4.23-44.09-5.06-72.22-23.84s-59.55-13.16-59.55-13.16C9.97,34.07,1.49,24.22,1.49,24.22c0,0,13.47,8.38,71.12-2.95,57.66-11.32,77.21,38.66,120.1,37.83,0,0,12.37-5.15,13.27-7,.8-1.84,1.7-22.37.5-28.72"/>
      <path class="cls-2" d="m206.39,15.75s-1.6-12.06-3.39-15.65"/>
      <path class="cls-2" d="m206.39.1s4.39,12.61,5.09,22.46"/>
      <path class="cls-2" d="m212.67,36.74c.5,5.34,0,12.7,0,12.7l2.49-1.2"/>
      <path class="cls-2" d="m205.89,89.66s-6.18,20.62,1.1,50.9c7.28,30.28,4.09,67.47,0,82.02-4.09,14.45-16.96,45.75-16.96,45.75,0,0,32.92-58.64,25.24-108.99s-4.29-55.78.5-74.47"/>
      <path class="cls-2" d="m240.11,72.45s29.53,18.41,34.12,18.87c4.49.37,7.88,5.34,16.06-13.07,3.99-8.93,10.47-11.14,10.47-11.14,0,0,29.93-8.74,33.52-10.4s6.58-18.23,6.58-18.23c0,0-1.6,9.11-3.39,16.29s-30.33,11.6-38.11,17.21-5.99,26.79-17.36,31.02c-11.47,4.23-49.08-24.3-49.08-24.3"/>
      <path class="cls-2" d="m280.91,91.6c-11.17-7.64-39.5-21.26-39.5-21.26l4.99-9.3s56.46-20.07,70.53-24.3,43.99-4.51,65.04-8.65S424.45.1,424.45.1c-12.57,9.39-27.43,24.95-60.35,27.06-13.17.83-23.84,1.93-31.92,2.95-10.08,1.29-20.05,3.59-29.63,6.72l-56.06,18.41s-10.57-.37-16.36-2.39c-1.9-.64-3.39-1.56-3.69-2.67-1.3-4.42-7.08-42.07-10.67-49.98"/>
      <path class="cls-2" d="m284,101.91s25.34,20.71,35.01,52.38c9.68,31.67,24.04,94.81,28.83,112.02s24.54,77.51,34.12,97.57c9.58,20.07,17.46,30.84,22.05,34.43s30.23,22.64,48.88,82.11c0,0-11.37-53.2-46.39-82.38-35.01-29.18-66.84-184.19-78.61-231.23-10.37-41.42-31.02-60.94-39.7-69.22"/>
      <path class="cls-2" d="m162.2,387.35s3.19-4.88,4.99-6.44-2.09-6.54-4.99-9.76-14.96-19.61-25.24-44.28c-10.27-24.67-16.66-101.25-73.22-140.65Q7.18,146.83,7.28,146.92s62.45,40.32,72.62,50.81c10.17,10.4,25.14,24.76,38.41,59.37,13.27,34.61,15.26,48.97,19.05,59.56,3.79,10.68,28.63,54.13,42.4,55.32"/>
      <path class="cls-2" d="m167.19,363.6s3.89-20.16-1.9-31.11c-5.79-11.05-26.63-31.76-22.15-44.55,4.49-12.7,21.05-25.04,17.26-52.56,0,0,7.48,19.7-11.97,47.96,0,0-7.08,12.89,13.57,34.15,20.65,21.26,14.07,49.71,14.07,49.71"/>
      <path class="cls-2" d="m191.03,364.53s4.09,5.25,12.97,0,20.55-12.79,48.98-9.85c28.43,2.95,39.2,4.88,46.49-1.66,0,0-4.39,8.74-35.71,5.06-31.22-3.68-39.9.46-53.67,8.1s-17.66,12.98-17.66,12.98"/>
      <path class="cls-2" d="m189.43,386.16s2.79-5.71,49.88,4.14c47.08,9.85,74.62-5.71,74.62-5.71,0,0-29.43,12.89-71.32,2.85-41.9-10.03-41.1-11.69-50.18-8.28"/>
      <path class="cls-2" d="m175.67,408.43s-8.08,20.71,6.48,46.39l14.56,25.68"/>
      <path class="cls-2" d="m163.7,412.58s-1.4,13.62,4.49,26.88c5.89,13.26,26.24,41.15,26.24,41.15"/>
      <path class="cls-2" d="m598.03,357.53s33.92,32.13,49.68,38.2c15.76,6.08,11.17,12.61,26.53,21.36,15.36,8.74,26.04,12.43,26.04,12.43-38.51-22.74-26.04-29.82-48.78-41.61-22.74-11.87-36.01-29.82-36.01-29.82-.8-14.18-8.78-18.04-8.78-18.04l93.67-39.4"/>
      <path class="cls-2" d="m566.2,345.01s13.67,12.98,10.37,40.87c-3.29,27.89-4.09,43.54-14.46,59.56-10.37,16.02-14.46,35.07-14.46,35.07"/>
      <path class="cls-2" d="m606.31,365.17s-17.86-9.02-18.65,1.75c-.8,10.86-3.89,61.95-15.76,78.79-11.87,16.75-11.57,9.02-19.75,34.89"/>
      <path class="cls-2" d="m436.15,325.04c47.09-4.34,70.35-7.72,103.62.82,0,0,.9-5.52,4.89-9.57,3.89-4.05-12.87-18.96-15.76-40.04-2.89-21.08-10.77-50.35-41.7-61.67s-40.1-23.2-46.39-38.75c-6.28-15.46-7.38-17.4-7.38-17.4,0,0,17.06,39.95,43.79,48.14,26.73,8.19,40.9,21.08,47.18,36.82,6.28,15.74,8.08,39.4,17.26,50.08,9.18,10.68,8.08,13.62,13.67,19.7,0,0,22.64,19.7,36.71,18.41s108.33-36.27,108.33-36.27"/>
      <path class="cls-2" d="m431.56,330.3c-54.78,1.42-58.09-44.84-115.24-48.61-60.05-4.05-68.73-14.45-68.73-14.45,0,0,28.53,11.51,75.02,11.78,45.89.27,62.81,49.34,109.78,46.35"/>
      <path class="cls-2" d="m575.88,365.17s-27.03-30.47-37.51-33.6c-10.47-3.13-35.31-8.47-98.36-1.84l-4.52.39c.27-1.75.49-3.45.65-5.07"/>
      <path class="cls-2" d="m566.5,355.04s1.8,23.66-28.23,40.32c-29.93,16.66-25.94,25.31-31.52,45.01-5.69,19.88-38.6,17.4-38.6,17.4,0,0,28.03,2.76,37.81-9.94,1.5-1.93,5.59-11.69,6.09-15.1,1.1-7.18,2.79-14.54,8.98-19.97,8.58-7.64,53.87-27.71,55.86-39.4"/>
      <path class="cls-2" d="m549.55,304.32s-3.69-30.56,6.88-85.97-44.59-156.58-44.59-156.58c0,0,55.76,101.53,50.38,149.95-5.39,48.42-10.87,100.89,11.27,114.14"/>
      <path class="cls-2" d="m591.94,331.48s17.76-29.18,25.34-56.79c7.58-27.52,31.82-7,31.82-7,0,0-13.27-14.36-25.14-8.56-11.87,5.8-14.07,26.23-18.45,35.53-4.39,9.2-21.45,33.14-28.53,33.05"/>
    </g>
    <g id="Calque_7" data-name="Calque 7">
      <path class="cls-2" d="m487.6.1c1.4,3.59-6.28,34.61-9.58,48.79-3.39,14.18-8.18,34.15-7.68,42.71.5,8.56,4.79,32.59-5.79,35.72s-17.26,11.97-17.26,11.97c0,0-12.07,15.74-29.73,18.96-17.66,3.22-61.95,12.33-80.1,12.98-18.16.74-47.28-11.14-53.47-11.51,0,0,36.91,13.72,51.17,13.16,14.17-.55,66.74-8.56,76.31-9.39s26.43-4.88,36.01-13.16c0,0-48.38,30.93-56.96,48.23-8.58,17.31-30.62,97.57-47.88,117.92-17.26,20.34-21.25,23.01-21.25,23.01,0,0,31.92-25.87,42.99-57.62,11.07-31.76,26.14-78.15,33.92-84.59,7.88-6.54,27.13-24.3,48.98-38.94,0,0-25.34,50.72-21.65,82.11,3.69,31.39,33.22,104.66,33.22,104.66,0,0-34.32-91.96-28.73-117.82,5.59-25.87,22.84-66.37,22.84-66.37,0,0,12.77,2.21,20.15-3.5,1-.74,1.9-1.47,2.59-2.03,4.39-3.5,3.19-3.04,3.19-3.04,8.88,1.47,35.81,19.42,43.39,30.01,7.58,10.59,2.69,29.27,2.69,29.27l-.6,3.41c-.6,3.41.2,10.4,1.4,13.81s9.08,28.35,20.15,49.15c11.07,20.8,31.32,35.07,31.32,35.07,0,0-1.9-1.01-14.76-13.81s-32.52-62.32-34.42-74.56c-1.9-12.24,6.08-19.97-1.1-41.51-7.18-21.54-46.69-39.86-46.69-39.86,5.29-6.9-5.99-15.74-5.99-15.74,4.59-14.91,2.89-21.54,1.7-35.07-1.2-13.53.2-14.18,5.69-39.31,5.49-25.22,8.18-53.02,8.18-53.02"/>
      <path class="cls-2" d="m452.88,133.66s-14.36-36.82-28.43-48.97c-14.07-12.15-34.91-34.89-37.91-52.28C383.55,15.01,368.49.1,368.49.1"/>
      <path class="cls-2" d="m370.59.1s14.56,13.9,18.16,29.27c3.59,15.46,17.56,30.28,17.56,30.28,0,0,22.54,23.38,28.03,27.25s30.23,40.32,30.23,40.32"/>
      <path class="cls-2" d="m447.3,139.28s-18.65,4.05-35.81-8.47c-17.16-12.52-26.24-5.89-36.31,0s-29.63,7.09-37.71,1.01c-7.98-6.08-14.17-40.23-14.17-40.23,0,0,3.29,39.21,15.56,43.54,12.27,4.33,25.34,5.25,35.11.37,9.78-4.88,19.45-11.32,35.51,1.29,15.96,12.61,31.32,9.3,31.32,9.3"/>
      <path class="cls-2" d="m478.72,132.28s4.09,3.5,19.15-7.46c15.06-10.95,29.83-15.19,44.79-29.09,15.06-13.9,39.2-62.96,58.56-74.56,19.35-11.6,29.93-12.61,29.93-12.61,0,0-25.84,8.56-33.52,17.4-7.68,8.84-26.34,33.69-37.71,53.76-11.37,20.07-20.75,25.41-20.75,25.41,0,0-24.84,14.45-31.32,20.25s-19.15,18.5-26.04,19.05"/>
      <path class="cls-2" d="m529,191.56c17.56,10.68,35.01,19.7,44.59,20.16,24.04,1.1,29.43-.92,37.61-2.67s56.76-11.87,89.18-2.3"/>
      <path class="cls-2" d="m475.53,155.3s24.44,18.23,49.68,33.97"/>
      <path class="cls-2" d="m700.27,205s-20.35-4.05-27.53-4.23-23.54-1.84-35.41,0-37.41,9.02-50.77,8.1c-13.37-.92-24.34-2.58-36.81-10.13-12.37-7.55-23.14-15.65-23.14-15.65"/>
      <path class="cls-2" d="m459.57,161.19s-13.47,32.13,4.99,71.43c18.45,39.31,34.51,65.45,35.31,78.79.8,13.35-2.09,43.72-2.09,43.72,0,0,8.08-38.75,2.19-54.31-5.89-15.56-24.44-53.11-24.44-53.11,0,0-20.55-39.12-16.26-60.02,4.29-20.9,5.29-26.88,5.29-26.88"/>
    </g>
    <g id="Calque_8" data-name="Calque 8">
      <path class="cls-2" d="m174.77,190.83c-1.4.09-2.49.18-3.99.37,0,0-9.38,7.64-17.36,7.64s-12.47,10.49-13.27,38.02c-.8,27.52-22.64,27.8-35.11,44.83s-21.25,44.28-20.65,60.11c.6,15.83,1.7,57.62,1.7,57.62,0,0-4.39-58.08-4.39-62.41s-.8-41.05,16.06-59.1c16.86-18.04,31.22-23.93,32.32-40.78,1.1-16.85,1.9-35.16,6.58-40.78l-3.59-6.08s-50.58-4.6-81.5,4.88c-30.92,9.48-50.08,10.49-50.08,10.49"/>
      <path class="cls-2" d="m185.54,182.73c10.87-.18,26.63,2.03,38.01,13.72,19.05,19.61,30.43,51.46,43.89,56.33,13.57,4.88,17.76,5.62,17.76,5.62,0,0-20.25-3.31-25.74-9.2s-13.27-15.83-24.54-31.02c-10.37-13.81-20.05-28.72-53.97-27.8"/>
      <path class="cls-2" d="m1.49,203.16s24.44-2.49,43.39-9.67c18.95-7.18,57.16-13.16,87.68-11.05,0,0,3.39-5.43,9.98-8.01s.7-32.4-15.16-51C111.52,104.85,79.1,38.3,76.01.1c0,0,3.29,20.62,17.46,55.97,14.17,35.35,32.02,59.65,44.19,74.65,12.17,15,14.66,41.79,14.66,41.79,0,0,6.58-3.59,13.77,0s23.44-4.6,31.22-4.6,28.73,4.88,37.61,1.01,33.72-28.81,45.29-30.1,19.65,0,19.65,0c0,0-19.65.18-24.84,4.6-5.29,4.42-32.62,28.26-38.11,30.1-5.49,1.75-33.42,0-38.41,2.67s-25.34,7.82-25.34,7.82c0,0,2.59-.55,6.78-.92"/>
      <path class="cls-2" d="m132.57,182.45s-41.8-4.51-50.68-13.44c-8.88-8.93-22.54-27.8-44.49-22.09-21.95,5.71-26.83,8.01-26.83,8.01,0,0,24.84-10.22,32.62-11.23,6.98-.92,25.14.37,38.6,15.46,3.39,3.77,7.78,6.63,12.87,8.1,11.37,3.41,31.82,8.38,47.88,7.09"/>
      <path class="cls-2" d="m170.18,201.97s21.65,70.97,40.7,84.13c19.05,13.16,28.63,60.02,28.63,60.02,0,0-14.56-51.55-34.71-60.02s-42.69-78.7-42.69-78.7"/>
      <line class="cls-2" x1="161.1" y1="203.35" x2="159.8" y2="197.55"/>
      <line class="cls-2" x1="168.68" y1="197.55" x2="167.69" y2="193.4"/>
    </g>
    <g id="Calque_6" data-name="Calque 6">
      <path class="cls-2" d="m59.85,480.51s41.5-30.01,58.95-45.1c17.46-15.1,32.42-25.04,28.33-37.46,0,0,1.1-3.13-23.44-4.51-24.54-1.38-47.68-22-47.68-22,0,0-33.92-26.14-74.52-25.04,0,0,29.83-4.51,76.01,21.26,46.19,25.77,33.92,15.83,59.95,18.87"/>
      <path class="cls-2" d="m152.22,395.55s1.2-2.85-2.99-4.33c-4.19-1.56-20.35-7.27-32.32-15.1-11.97-7.82-94.07-48.51-115.42-49.25,0,0,20.45-1.01,91.77,32.68,71.32,33.69,74.02,18.78,74.02,18.78"/>
      <path class="cls-2" d="m63.84,480.51s61.55-41.24,83.99-61.31c0,0,2-3.5,6.98-5.98s4.99,1.38,11.37-1.66c6.38-3.04,7.48-5.89,15.46,0s73.92,68.85,73.92,68.85"/>
      <path class="cls-2" d="m258.56,480.51s-72.22-80.08-73.02-83.4c-.9-3.31,7.28-15.92,7.78-21.36.4-5.52,1.4-5.06-2.19-11.23-3.59-6.17,22.54-40.96,28.73-56.52,6.18-15.56,24.34-64.16,45.29-83.49,20.95-19.33,27.63-57.53,27.63-57.53,0,0-9.58,38.29-27.63,54.59-18.06,16.29-27.13,34.06-39,63.15-11.97,29.09-43.39,76.49-43.39,76.49,0,0-4.09,5.06-9.48,7.73"/>
    </g>
    <path class="cls-2" d="m435.49,330.12c-1.48,9.53-4.51,20.69-7.57,30.77-5.5,18.07,10.65,37.56,12.88,44.06s-4.81,15.06-3.3,14.58,4.37.93,4.37.93l5.46-6.05c5.46-6.05,24.41,1.01,28.41.34s15.39-7.8,21.86-26.89c6.47-19.09,30.6-36.98,30.6-36.98,0,0-20.76,13.78-29.14,40-8.38,26.22-25.5,29.58-32.42,28.24-6.92-1.34-22.22-.34-19.67,10.4,2.55,10.73-9.47,22.55-9.47,22.55,0,0,.56,8.32,2.72,14.41s4.31,12.56,8.34,14.04"/>
    <path class="cls-2" d="m432.38,325.36c.53-3.94.68-7.64.22-10.63-1.63-10.48-11.11-23.08-11.11-23.08,0,0,10.5,10.83,13.89,20.23,1.15,3.19,1.3,7.78.77,13.16"/>
    <path class="cls-2" d="m431.56,330.29c.33-1.66.61-3.32.83-4.93"/>
    <path class="cls-2" d="m426.97,420.92c.94-1.31,1.72-2.28,1.72-2.28,0,0,.14-3.34,1.95-10.54s-5.76-21.56-9.15-30.4c-3.4-8.83,0-18.8,3.4-25.93,2.03-4.27,4.99-12.95,6.68-21.48"/>
    <path class="cls-2" d="m410.89,480.42c5.25-6.04,9.59-24.97,9.59-24.97,0,0-.52-1.19-2.33-6.92-.75-2.37.02-6.06,1.2-9.74,1.67-5.19,4.15-10.37,4.31-11.8.13-1.12,1.19-2.96,2.3-4.63"/>
    <path class="cls-2" d="m416.4,480.51s11.97-20.99,11.84-23.73c0,0,2.02,1.37,3.5,1.24s3.5,19.76,8.48,22.48"/>
    <path class="cls-2" d="m560.8,374.63c-2.81,5.56-35.49,16.76-42.59,18.4-7.1,1.64-23.54,25.6-30.05,29.42s-11.83,0-24.85-1.32c-13.02-1.32-16.34,8.4-16.34,8.4"/>
    <path class="cls-2" d="m446.68,437.18s4.51-10.37,13.08-10.92c8.58-.55,21.6,5.41,26.92,3.25,5.33-2.16,27.8-32.81,32.87-34s36.59-13.83,38.91-17.35"/>
    <path class="cls-2" d="m423.67,426.99s-47.62-15.44-59.77-29.03c-12.15-13.59-50.06-77.44-67.36-81.17s-54.42-40.03-57.04-44.49,29.44,36.34,40.85,42.79,18.4,6.11,30.18,20.72c11.78,14.61,44.54,71.37,55.95,76.95,0,0,40.24,24.4,52.88,26.03"/>
    <path class="cls-2" d="m551.39,467.84c-9.47,1.43-19.51,2.02-28.88.81-31.04-4.03-21.79-12.57-41.45-16.13-19.67-3.56-41.26-3.02-41.26-3.02"/>
    <path class="cls-2" d="m557.91,464.52c18.59-2.7,34.22-7.74,34.22-7.74,0,0-15.77,6.5-35.25,10.13"/>
    <path class="cls-2" d="m445.08,441.4s37.14-2.42,60.66,16.62c10.64,8.61,29.32,9.18,46.6,7.22"/>
    <path class="cls-2" d="m418.16,448.53s-8.37,10.24-38.28,13.03c-25.05,2.34-84.8,18.86-84.8,18.86"/>
    <path class="cls-2" d="m300.34,480.51s58.23-14.65,71.54-16.04,27.69-1.55,35.86-5.32,11.95-5.92,11.95-5.92"/>
    <rect class="cls-1" x="1.49" y=".1" width="698.88" height="480.5"/>
  </g>
  <g id="Calque_2" data-name="Calque 2">
    <rect class="cls-1" y=".04" width="700" height="480"/>
  </g>
</svg>