<?xml version="1.0" encoding="UTF-8"?>
<svg id="Calque_3" data-name="Calque 3" xmlns="http://www.w3.org/2000/svg" viewBox="0 0 1037.53 1073.12">
  <defs>
    <style>
      .cls-1 {
        fill: none;
        stroke: #000;
        stroke-miterlimit: 10;
        stroke-width: .25px;
      }
    </style>
  </defs>
  <polyline class="cls-1" points="312.5 642.25 312.5 696.33 380 736.33"/>
  <line class="cls-1" x1="59.39" y1="708.21" x2="108.76" y2="736.33"/>
  <line class="cls-1" x1="108.14" y1="815.08" x2="56.26" y2="842.58"/>
  <polyline class="cls-1" points="238.02 892.64 286.18 921.45 356.16 880.29 428.2 921.45 505.59 895.93 531.11 816.89 610.56 801.25 626.61 752.26"/>
  <polyline class="cls-1" points="527.4 998.84 552.93 960.97 505.59 895.93"/>
  <polyline class="cls-1" points="478.83 1019.83 428.2 1004.19 428.2 921.45"/>
  <polyline class="cls-1" points="286.18 921.45 286.18 1004.19 357.19 1046.59 428.2 1004.19"/>
  <line class="cls-1" x1="358.45" y1="1027.31" x2="411.65" y2="995.63"/>
  <line class="cls-1" x1="301.2" y1="929.04" x2="301.2" y2="995.63"/>
  <line class="cls-1" x1="358.45" y1="895.93" x2="411.65" y2="929.04"/>
  <line class="cls-1" x1="498.54" y1="912.49" x2="537.52" y2="963.44"/>
  <polyline class="cls-1" points="502.75 1030.45 502.75 1009.1 518 1030.45 518 1009.1"/>
  <line class="cls-1" x1="502.75" y1="1057.83" x2="502.75" y2="1036.48"/>
  <line class="cls-1" x1="518" y1="1057.83" x2="518" y2="1036.48"/>
  <line class="cls-1" x1="502.75" y1="1046.6" x2="518" y2="1046.6"/>
  <ellipse class="cls-1" cx="219.9" cy="885.09" rx="9.2" ry="11.18"/>
  <line class="cls-1" x1="206.9" y1="874.44" x2="206.9" y2="895.79"/>
  <line class="cls-1" x1="191.35" y1="884.39" x2="206.9" y2="884.39"/>
  <line class="cls-1" x1="191.35" y1="874.44" x2="191.35" y2="895.79"/>
  <ellipse class="cls-1" cx="41.98" cy="842.14" rx="9.2" ry="11.18"/>
  <line class="cls-1" x1="29.79" y1="832.14" x2="29.79" y2="852.62"/>
  <ellipse class="cls-1" cx="45.6" cy="704.04" rx="9.2" ry="11.18"/>
  <line class="cls-1" x1="33.41" y1="694.04" x2="33.41" y2="714.06"/>
  <line class="cls-1" x1="18.83" y1="694.04" x2="18.83" y2="714.06"/>
  <line class="cls-1" x1="33.41" y1="703.35" x2="18.83" y2="703.35"/>
  <ellipse class="cls-1" cx="311.56" cy="628.01" rx="9.2" ry="11.18"/>
  <line class="cls-1" x1="323.12" y1="618" x2="323.12" y2="637.94"/>
  <line class="cls-1" x1="338.26" y1="618" x2="338.26" y2="638.02"/>
  <line class="cls-1" x1="323.12" y1="627.97" x2="338.26" y2="627.97"/>
  <polyline class="cls-1" points="628.22 744.26 628.22 722.91 643.47 744.26 643.47 722.91"/>
  <line class="cls-1" x1="647.6" y1="722.91" x2="647.6" y2="744.26"/>
  <line class="cls-1" x1="663.15" y1="722.91" x2="663.15" y2="744.26"/>
  <line class="cls-1" x1="647.6" y1="733.58" x2="663.15" y2="733.58"/>
  <path class="cls-1" d="m667.89,745.69s-.46-4.21,3.93-4.21,3.61,4.21,3.61,4.21c0,0-.6,1.73-2.96,3.4s-4.42,3.03-4.45,4.44h7.86"/>
  <g id="Calque_2" data-name="Calque 2">
    <path d="m368.26,767.32c-3.72-1.6-15.15-7.93-27.46-29.1-.85-1.45-1.95-2.74-3.25-3.8-3.1-2.5-9.17-6.04-17.87-4.94-.12.01-.23.05-.34.09-1.15.51-7.52,3.89-8.51,16.31,0,0-.3,5.05,3.46,9.1s18.98,24.99,45.77,32.04c0,0,5.81,1.64,6.74,3.66s1.77,2.78-.34,11.78-9.56,30.05-3.66,64.86c4.26,25.14,19.49,25.56,27.63,23.85,3.92-.82,7.34-3.23,9.33-6.71,2.2-3.85,4.01-9.83,1.59-17.73-4.52-14.75-16.55-31.63-13.3-61.35,0,0,.43-3.72,3.11-1.05s22.55,12.55,31.34,30.56c8.79,18.01,29.47,30.31,39.59,17.03,10.12-13.28-1.05-27.61-4.85-32.04-3.79-4.42-30.53-33.27-54.76-35.41-.03,0-.05,0-.08,0-.79-.15-13.36-2.62-11.14-9.88,2.29-7.5,10.56-35.04,1.68-60.13,0,0-2.14-8.26-9.18-10.25s-18.37-7.65-22.04,11.32c0,0-2.13,8.26,6.43,20.96,7.24,10.73,3.22,25.68,1.8,30.05-.23.71-1.01,1.07-1.7.77v.02Z"/>
    <path d="m520.78,816.82c1.48,3.99,6.72,16.22,17.36,22.62,1.95,1.17,3.76,2.57,5.24,4.3,2.8,3.27,6.12,8.6,3.78,13.73-3.73,8.18-11.55,8.35-17.6,3.91-5.91-4.34-20.81-22.6-21.48-44.33-.03-.92-.77-1.66-1.69-1.72-1.4-.09-3.43-.03-5.02.8-2.72,1.41-17.56,5.69-28.46-1.69s1.52-16.83,4.83-16,17.03,8.69,22.97,6.07c0,0,1.74-.09.87-2.43s-4.42-11.41-12.55-15.22-3.66-14.68,3.66-16.43c7.31-1.75,6.77,2.07,11.3,7.53,4.53,5.46,8.73,13.21,9.33,21.06s10.86,1.31,12.88.76,10.46-4.3,31.43-.13,15.42,17.49,15.42,17.49c0,0-2.91,11.71-17.09,7.34-13.75-4.23-20.13-11.63-34.26-9.21-.72.12-1.17.87-.91,1.55h0Z"/>
    <path d="m280.43,840.77s12.22-23.88,23.66-29.2,14.49,1.25,14.49,1.25c0,0,5.89,7.65-1.02,12.32-6.72,4.54-19.13,9.49-25.21,18.41-.28.41-.11.97.34,1.18,1.47.66,4.77,1.64,8.68-.44,5.32-2.83,15.17-6.43,21.39,1.26,6.23,7.68-4.13,14.71-7.81,15.83s-17.88,1.92-24.68-2.6c-4.05-2.7-5.92-3.63-6.78-3.94-.37-.13-.78.03-.97.37-1.53,2.8-9.28,16.43-17.63,22.39-3.04,2.17-6.9,2.99-10.45,1.86-2.02-.64-3.91-1.91-4.35-4.38-.62-3.49.67-6.19,1.79-7.79.63-.91,1.5-1.62,2.5-2.07,2.68-1.2,9.72-4.89,16.52-12.85.38-.45.12-1.15-.47-1.23-1.36-.2-4.11-.05-9.25,2.1,0,0-7.81,2.38-10.19-3.96-2.38-6.34.57-12.11,7.92-12.34s11.09-1.36,16.53,2.94c0,0,3.17,2.26,4.98.91v-.02Z"/>
    <path d="m185.4,856.99s14.98-18.53,19.46-29.34c0,0,3.09-7.1,12.35-4.79s7.72,12.51,6.79,14.21c-.87,1.59-16.12,22.32-27.82,29.87-1.06.68-2.23,1.16-3.42,1.57-1.58.53-4.07,2.21-2.42,7.48,0,0,10.35,12.82,5.4,38.29-4.94,25.48-23.78,14.98-23.78,14.98,0,0-9.42-5.25-2.16-24.71,0,0,5.1-9.73,5.4-15.6,0,0-12.82,14.21-17.45,27.49-4.63,13.28-13.59,17.91-17.29,17.76-3.71-.15-11.74-.77-13.28-8.18s-.93-17.29,18.53-33.51,27.79-20.84,27.79-23.62-3.86-5.87-3.71-11.74,1.54-22.85,4.01-26.87,8.65-5.25,12.04-2.47,7.72,7.41,6.95,12.51-7.41,16.68-7.41,16.68h.02Z"/>
  </g>
  <polyline class="cls-1" points="243.13 736.33 243.13 815.08 176.88 854.45 108.14 815.08 108.76 736.33 175.01 696.33 243.13 736.33 312.5 696.33"/>
</svg>