<?xml version="1.0" encoding="UTF-8"?>
<svg xmlns="http://www.w3.org/2000/svg" viewBox="0 0 700.29 480.5">
  <defs>
    <style>
      .cls-1 {
        opacity: 0;
      }

      .cls-2 {
        fill: none;
        stroke: #000;
        stroke-miterlimit: 10;
        stroke-width: .5px;
      }
    </style>
  </defs>
  <g id="Calque_2" data-name="Calque 2">
    <polyline class="cls-2" points="329.39 81.11 256.1 81.11 249.49 87.28 248.13 428.28 252.74 434.74 329.39 434.74"/>
    <polyline class="cls-2" points="325.2 81.11 398.49 81.11 405.1 87.28 406.46 428.28 401.85 434.74 325.2 434.74"/>
    <path d="m349.52,59.96s11.46-33.52-21.4-35.68h-.8c-34.33,2.16-22.36,35.68-22.36,35.68,0,0,25.59-3.18,44.56,0Z"/>
    <path class="cls-2" d="m292.71,81.11s14.73-1.82,15.7-3.76.79-8.03.79-8.03c0,0-3-2.21-3.53-3.26s-.71-6.09-.71-6.09"/>
    <path class="cls-2" d="m361.82,81.11s-14.73-1.82-15.7-3.76-.79-8.03-.79-8.03c0,0,3-2.21,3.53-3.26s.71-6.09.71-6.09"/>
    <path class="cls-2" d="m325.2,413.73c-19.42-.54-53.11,2.44-57.98,1.89s-5.14-5.41-5.14-5.41l-.16-77.79s-1.48-185.18-1.85-198.92-2.07-43.87-2.07-43.87l2.23-1.93c17.97,4.96,64.98,7.44,64.98,7.44h2.16s47.01-2.48,64.98-7.44l2.23,1.93s-1.69,30.13-2.07,43.87c-.38,13.75-1.85,198.92-1.85,198.92l-.16,77.79s-.27,4.87-5.14,5.41-38.56-2.44-57.98-1.89h-2.16Z"/>
    <rect class="cls-2" x="272.56" y="105.21" width="107.36" height="293.55"/>
    <polygon points="305.92 195.71 313 195.71 313 257.26 334.24 257.26 334.24 261.31 305.92 261.31 305.92 195.71"/>
    <polygon points="305.92 265.36 305.92 268.87 349.14 268.87 349.14 203.54 327.53 203.54 327.53 199.76 349.14 199.76 349.14 195.71 318.59 195.71 318.59 206.82 339.46 206.78 339.46 265.36 305.92 265.36"/>
    <rect x="318.79" y="210.36" width="15.46" height="43.32"/>
    <line class="cls-2" x1="394.56" y1="81.11" x2="394.56" y2="31.91"/>
    <line class="cls-2" x1="403.59" y1="85.87" x2="403.59" y2="20.31"/>
    <line class="cls-2" x1="405.12" y1="91.51" x2="452.26" y2="91.51"/>
    <line class="cls-2" x1="399.87" y1="82.39" x2="461.62" y2="82.39"/>
    <line class="cls-2" x1="235.56" y1="381.04" x2="248.13" y2="401.64"/>
    <line class="cls-2" x1="269.32" y1="434.74" x2="290.42" y2="468.42"/>
    <line class="cls-2" x1="230.35" y1="401.64" x2="271.55" y2="463.45"/>
    <line class="cls-2" x1="248.13" y1="462.46" x2="248.13" y2="425.47"/>
    <circle class="cls-2" cx="189.32" cy="141.84" r="33.86"/>
    <polyline class="cls-2" points="248.87 241.89 206.3 171.13 189.32 141.84 218.06 159.74 248.87 180.56"/>
    <path class="cls-2" d="m405.92,293.02s34.71-3.51,44.54,34.4h15.09s-2.01-49.14-59.09-48.79"/>
    <path class="cls-2" d="m405.92,272.67s54.37-3.51,67,54.76h22.11s-4.82-76.51-89.28-75.72"/>
    <line class="cls-2" x1="406.18" y1="359.01" x2="447.19" y2="318.04"/>
    <line class="cls-2" x1="459.33" y1="306.23" x2="463.03" y2="302.25"/>
    <polyline class="cls-2" points="479.66 285.59 505.94 259.79 492.8 246.43 467.61 271.99"/>
    <line class="cls-2" x1="450.95" y1="288.18" x2="447.63" y2="291.53"/>
    <line class="cls-2" x1="436.22" y1="303.03" x2="406.08" y2="333.39"/>
    <rect class="cls-1" width="700.29" height="480.5"/>
  </g>
  <g id="Calque_3" data-name="Calque 3">
    <polyline class="cls-2" points="122.51 155.51 73.81 155.51 69.42 159.62 68.52 386.2 71.58 390.49 122.51 390.49"/>
    <polyline class="cls-2" points="119.73 155.51 168.43 155.51 172.82 159.62 173.72 386.2 170.66 390.49 119.73 390.49"/>
    <path d="m135.89,141.46s7.61-22.27-14.22-23.71h-.53c-22.81,1.44-14.86,23.71-14.86,23.71,0,0,17.01-2.11,29.61,0Z"/>
    <path class="cls-2" d="m98.14,155.51s9.79-1.21,10.44-2.5.53-5.33.53-5.33c0,0-1.99-1.47-2.35-2.17s-.47-4.05-.47-4.05"/>
    <path class="cls-2" d="m135.92,141.46s-.12,3.35-.47,4.05-2.35,2.17-2.35,2.17c0,0-.12,4.05.53,5.33s10.44,2.5,10.44,2.5v-81.6"/>
    <path class="cls-2" d="m119.73,376.53c-12.9-.36-35.29,1.62-38.53,1.26s-3.42-3.6-3.42-3.6l-.11-51.69s-.98-123.04-1.23-132.18-1.38-29.15-1.38-29.15l1.48-1.28c11.94,3.29,43.18,4.94,43.18,4.94h1.43s31.24-1.65,43.18-4.94l1.48,1.28s-1.13,20.02-1.38,29.15-1.23,132.18-1.23,132.18l-.11,51.69s-.18,3.24-3.42,3.6-25.62-1.62-38.53-1.26h-1.43Z"/>
    <rect class="cls-2" x="84.75" y="171.53" width="71.34" height="195.06"/>
    <polygon points="107.58 231.66 111.8 231.66 111.8 271.72 124.43 271.72 124.43 274.35 107.58 274.35 107.58 231.66"/>
    <polygon points="107.58 276.99 107.58 279.27 133.3 279.27 133.3 236.76 120.44 236.76 120.44 234.3 133.3 234.3 133.3 231.66 115.12 231.66 115.12 238.89 127.54 238.86 127.54 276.99 107.58 276.99"/>
    <rect x="115.24" y="241.2" width="9.2" height="28.19"/>
    <line class="cls-2" x1="120.42" y1="114.72" x2="221.39" y2="114.72"/>
    <line class="cls-2" x1="120.42" y1="92.92" x2="221.39" y2="92.92"/>
    <line class="cls-2" x1="133.09" y1="114.72" x2="133.09" y2="92.92"/>
    <line class="cls-2" x1="200.53" y1="73.92" x2="200.53" y2="227.83"/>
    <line class="cls-2" x1="173.06" y1="219.23" x2="221.39" y2="219.23"/>
    <line class="cls-2" x1="200.53" y1="200.92" x2="221.39" y2="200.92"/>
    <line class="cls-2" x1="172.91" y1="182.38" x2="200.53" y2="182.38"/>
    <line class="cls-2" x1="189.32" y1="92.92" x2="189.32" y2="73.92"/>
    <line class="cls-2" x1="68.52" y1="330.61" x2="23.15" y2="330.61"/>
    <polyline class="cls-2" points="58.69 322.98 58.69 417.67 116.17 417.67"/>
    <line class="cls-2" x1="25.29" y1="352.55" x2="58.69" y2="352.55"/>
    <line class="cls-2" x1="39.13" y1="322.98" x2="39.13" y2="405.5"/>
    <line class="cls-2" x1="25.29" y1="370.32" x2="39.13" y2="370.32"/>
    <line class="cls-2" x1="58.69" y1="370.32" x2="68.58" y2="370.32"/>
    <line class="cls-2" x1="39.13" y1="391.34" x2="58.69" y2="391.34"/>
    <line class="cls-2" x1="116.17" y1="390.49" x2="116.17" y2="420.77"/>
    <polyline class="cls-2" points="116.17 405.5 58.69 405.5 25.29 405.5"/>
  </g>
  <g id="Calque_4" data-name="Calque 4">
    <polyline class="cls-2" points="525.3 146.82 476.6 146.82 472.21 150.92 471.3 377.5 474.37 381.79 525.3 381.79"/>
    <polyline class="cls-2" points="522.51 146.82 571.21 146.82 575.61 150.92 576.51 377.5 573.45 381.79 522.51 381.79"/>
    <path d="m538.68,132.76s7.61-22.27-14.22-23.71h-.53c-22.81,1.44-14.86,23.71-14.86,23.71,0,0,17.01-2.11,29.61,0Z"/>
    <path class="cls-2" d="m500.92,146.82s9.79-1.21,10.44-2.5.53-5.33.53-5.33c0,0-1.99-1.47-2.35-2.17s-.47-4.05-.47-4.05"/>
    <path class="cls-2" d="m538.7,132.76s-.12,3.35-.47,4.05-2.35,2.17-2.35,2.17c0,0-.12,4.05.53,5.33s10.44,2.5,10.44,2.5v-81.6"/>
    <path class="cls-2" d="m522.51,367.84c-12.9-.36-35.29,1.62-38.53,1.26-3.24-.36-3.42-3.6-3.42-3.6l-.11-51.69s-.98-123.04-1.23-132.18-1.38-29.15-1.38-29.15l1.48-1.28c11.94,3.29,43.18,4.94,43.18,4.94h1.43s31.24-1.65,43.18-4.94l1.48,1.28s-1.13,20.02-1.38,29.15-1.23,132.18-1.23,132.18l-.11,51.69s-.18,3.24-3.42,3.6-25.62-1.62-38.53-1.26h-1.43Z"/>
    <rect class="cls-2" x="487.54" y="162.83" width="71.34" height="195.06"/>
    <polygon points="510.37 222.97 514.58 222.97 514.58 263.02 527.22 263.02 527.22 265.66 510.37 265.66 510.37 222.97"/>
    <polygon points="510.37 268.29 510.37 270.58 536.09 270.58 536.09 228.06 523.23 228.06 523.23 225.6 536.09 225.6 536.09 222.97 517.91 222.97 517.91 230.2 530.32 230.17 530.32 268.29 510.37 268.29"/>
    <rect x="518.02" y="232.5" width="9.2" height="28.19"/>
    <path class="cls-2" d="m428.69,186.37s7.6-46.15,42.62-71.51"/>
    <path class="cls-2" d="m419.09,191.95s8.62-72.06,54.27-100.44"/>
    <polyline class="cls-2" points="579.85 169.64 620.93 109.06 605.72 281.21"/>
    <path class="cls-2" d="m511.9,429.81s123.24,4.56,109.04-117.66"/>
    <line class="cls-2" x1="689.91" y1="333.39" x2="582.9" y2="335.98"/>
    <line class="cls-2" x1="587.97" y1="362.86" x2="673.17" y2="394.31"/>
    <line class="cls-2" x1="571.74" y1="396.33" x2="571.74" y2="446.54"/>
    <line class="cls-2" x1="546.85" y1="405.97" x2="514.94" y2="444.51"/>
  </g>
</svg>