<?xml version="1.0" encoding="UTF-8"?>
<svg xmlns="http://www.w3.org/2000/svg" viewBox="0 0 1037.66 1073.37">
  <defs>
    <style>
      .cls-1, .cls-2, .cls-3 {
        fill: none;
      }

      .cls-2 {
        stroke: #161615;
      }

      .cls-2, .cls-3 {
        stroke-miterlimit: 10;
        stroke-width: .25px;
      }

      .cls-3 {
        stroke: #000;
      }
    </style>
  </defs>
  <g id="Calque_1" data-name="Calque 1">
    <g id="Calque_2" data-name="Calque 2">
      <g id="BASE">
        <path id="Tracé_8" data-name="Tracé 8" class="cls-2" d="m348.17,1016.07h56.2v-315.9h-108.2v315.9h52"/>
        <path id="Tracé_9" data-name="Tracé 9" class="cls-2" d="m352.38,645.07h13.8c.7,0,6.9,1,6.9,1,.3.5.5,1,.7,1.5.3,1.8.3,3.6,0,5.3-.4,1.4-2.8,2.1-3.7,3.1-.9,1,.1,8.8,1,10.9s50,.9,57.3,2.9,7.4,9.7,7.4,9.7v371.7l-8,7.2h-155.1l-8-7.2v-371.7s.1-7.7,7.4-9.7,56.4-.8,57.3-2.9,1.9-9.9,1-10.9-3.3-1.7-3.7-3.1c-.3-1.8-.3-3.6,0-5.3.2-.5.4-1,.7-1.5,0,0,6.1-1.1,6.9-1h18.1Z"/>
        <path id="Tracé_10" data-name="Tracé 10" class="cls-2" d="m373.08,646.07c11.4-34-20.7-38.7-20.7-38.7h-4.3s-32.1,4.7-20.7,38.6"/>
        <path id="Tracé_11" data-name="Tracé 11" class="cls-2" d="m352.38,695.97h55.9v323.3h-116v-323.3h60.1Z"/>
        <path id="Tracé_12" data-name="Tracé 12" class="cls-2" d="m352.38,677.67c3.1-.2,38.4,1.7,38.4,1.7.3,0,.5,0,.8.1,1,.2,2.4.8,1.3,2.7-.9,1.7-2.4,3-4.2,3.6l-36.3.5h-4.3l-36.3-.5c-1.8-.7-3.3-1.9-4.2-3.6-1-1.9.4-2.5,1.3-2.7.3-.1.5-.1.8-.1,0,0,35.2-1.9,38.4-1.7,0,0,4.3,0,4.3,0Z"/>
        <path id="Tracé_13" data-name="Tracé 13" class="cls-2" d="m308.48,679.47s-25.8-2.6-27.5-2c-1.8.6-3.2,1-3.2,2s3.5,349,3.5,349c0,0-.8,8.1,7.1,8.8,7.9.6,46.7-2.6,59.8-2.5h4.3c13-.4,51.8,3.1,59.8,2.5,7.9-.6,7.1-8.8,7.1-8.8,0,0,3.5-348,3.5-349s-1.4-1.4-3.2-2c-1.8-.6-27.5,2-27.5,2"/>
      </g>
      <g>
        <polygon class="cls-3" points="329.62 802.62 336.33 802.62 336.33 863.22 356.73 863.22 356.73 867.22 329.62 867.22 329.62 802.62"/>
        <polygon class="cls-3" points="329.62 871.22 329.62 874.72 370.92 874.72 370.92 810.32 350.23 810.32 350.23 806.52 370.92 806.52 370.92 802.62 341.73 802.62 341.73 813.52 361.62 813.52 361.62 871.22 329.62 871.22"/>
        <rect class="cls-3" x="341.92" y="817.02" width="14.8" height="42.7"/>
      </g>
    </g>
    <g id="Calque_3" data-name="Calque 3">
      <circle class="cls-3" cx="577.53" cy="868.32" r="65.3"/>
      <polygon class="cls-3" points="577.53 868.32 700.42 1072.92 700.42 945.92 577.53 868.32"/>
      <polygon class="cls-3" points=".12 958.52 261.52 1072.42 .12 1072.42 .12 958.52"/>
      <circle class="cls-3" cx="103.93" cy="991.32" r="49.4"/>
    </g>
    <rect class="cls-3" x="68.9" y="921.84" width="102.81" height="21.89" transform="translate(371.16 26.35) rotate(22.82)"/>
    <rect class="cls-3" x="41.05" y="889" width="114.95" height="21.89" transform="translate(356.72 32.22) rotate(22.82)"/>
    <rect class="cls-1" x=".12" y="592.29" width="700.3" height="480.63"/>
  </g>
  <g id="Calque_2-2" data-name="Calque 2">
    <line class="cls-3" x1=".12" y1="644.41" x2="292.27" y2="644.41"/>
    <line class="cls-3" x1=".12" y1="704.37" x2="264.67" y2="704.37"/>
    <line class="cls-3" x1="73.95" y1="925.15" x2="73.95" y2="952.06"/>
    <line class="cls-3" x1="73.95" y1="901.47" x2="73.95" y2="910.4"/>
    <line class="cls-3" x1="73.95" y1="592.29" x2="73.95" y2="877.73"/>
    <line class="cls-3" x1="232.97" y1="592.29" x2="232.97" y2="1030.24"/>
    <line class="cls-3" x1="45.27" y1="644.41" x2="45.27" y2="704.37"/>
    <line class="cls-3" x1="200.39" y1="592.29" x2="200.39" y2="644.41"/>
    <polyline class="cls-3" points="73.95 800.83 212.87 800.83 264.67 800.83"/>
    <line class="cls-3" x1="151.33" y1="1005.24" x2="264.67" y2="1005.24"/>
    <line class="cls-3" x1="232.97" y1="898.51" x2="123.33" y2="898.51"/>
    <line class="cls-3" x1="232.97" y1="953.24" x2="264.67" y2="953.24"/>
    <line class="cls-3" x1="480.55" y1="592.29" x2="480.55" y2="832.52"/>
    <line class="cls-3" x1="540.12" y1="592.72" x2="540.12" y2="814.79"/>
    <line class="cls-3" x1="632.14" y1="832.52" x2="700.42" y2="832.52"/>
    <line class="cls-3" x1="435.77" y1="832.52" x2="522.91" y2="832.52"/>
    <line class="cls-3" x1="435.77" y1="616.7" x2="700.42" y2="616.7"/>
    <line class="cls-3" x1="435.77" y1="679.45" x2="540.12" y2="679.45"/>
    <line class="cls-3" x1="435.77" y1="733.01" x2="480.55" y2="733.01"/>
    <line class="cls-3" x1="540.12" y1="733.01" x2="700.42" y2="733.01"/>
    <line class="cls-3" x1="480.55" y1="792.59" x2="540.12" y2="792.59"/>
  </g>
</svg>