<?xml version="1.0" encoding="UTF-8"?>
<svg id="Calque_1" data-name="Calque 1" xmlns="http://www.w3.org/2000/svg" viewBox="0 0 700.29 480.5">
  <defs>
    <style>
      .cls-1 {
        fill: rgba(22, 22, 22, 0);
      }

      .cls-2 {
        fill: #161616;
      }

      .cls-3 {
        fill: none;
        stroke: #1d1d1b;
        stroke-miterlimit: 10;
        stroke-width: .5px;
      }
    </style>
  </defs>
  <g>
    <g id="Groupe_165" data-name="Groupe 165">
      <path class="cls-2" d="m418.94,480.11h.23V198.43h-134.57v281.02h.23V198.66h134.11v281.44h0Z"/>
      <path class="cls-2" d="m284.83,479.46h-.23v.87h.23v-.86h0Z"/>
      <path class="cls-2" d="m245.63,479.89h-.23v.27h.23v-.28h0Z"/>
      <path class="cls-2" d="m456.93,168.49c.7,1.57,1.11,3.25,1.22,4.95v306.28c.08,0,.15.03.23.04V173.44c-.11-1.74-.52-3.44-1.23-5.04-1.46-3.43-4.46-5.97-8.09-6.84-4.43-1.16-21.17-1.43-37.35-1.7-8.64-.14-16.8-.27-23.07-.52-3.37-.14-5.86-.3-7.62-.5-.75-.07-1.48-.19-2.2-.35-.69-.17-.82-.32-.85-.37-.53-1.18-1.13-4.07-1.46-7.02-.36-3.2-.3-5.51.16-6.03.55-.52,1.18-.97,1.86-1.3,1.19-.69,2.42-1.4,2.72-2.52.45-1.73.38-5.47,0-6.51-.23-.63-.53-1.23-.89-1.8l-.03-.04h-.05c-.3-.06-7.33-1.23-8.5-1.23h-.07c-.27.02-4.27.03-11.53.03h-16.82c-7.22,0-11.02,0-11.28-.03h-.07c-.49,0-2.07.21-4.69.61-1.02.15-2,.32-2.64.42l-.84.14-.23.04h-.06s-.09.03-.11.08c-.35.57-.65,1.16-.88,1.79-.38,1.04-.45,4.78,0,6.51.28,1.11,1.52,1.82,2.72,2.52.69.34,1.31.78,1.86,1.3.45.52.52,2.83.16,6.03-.33,2.96-.93,5.84-1.46,7.02-.03.05-.15.21-.85.37-.73.16-1.46.27-2.2.35-1.76.2-4.26.36-7.62.5-6.26.26-14.43.39-23.06.52-16.18.26-32.92.52-37.35,1.7-3.62.88-6.63,3.42-8.09,6.84-.71,1.59-1.13,3.3-1.23,5.04v306.46h.23V173.44c.1-1.7.51-3.38,1.22-4.94,1.44-3.37,4.38-5.86,7.94-6.72,4.4-1.16,21.12-1.43,37.3-1.69,8.63-.14,16.8-.27,23.07-.52,3.37-.14,5.87-.3,7.63-.5,2.66-.3,3.13-.61,3.24-.86.54-1.2,1.15-4.12,1.48-7.09.18-1.58.51-5.37-.21-6.2-.57-.55-1.22-1-1.92-1.35-1.16-.66-2.35-1.35-2.6-2.37-.23-1.15-.33-2.31-.3-3.48-.03-.98.07-1.94.3-2.9.22-.6.51-1.17.84-1.71.65-.11,7.31-1.21,8.4-1.21h.06c.28.02,3.97.03,11.3.03h16.82c5.07,0,11.19,0,11.55-.03h.06c1.1,0,7.74,1.11,8.4,1.21h0c.33.54.62,1.11.84,1.71.22.95.33,1.92.3,2.9.03,1.16-.07,2.34-.3,3.48-.27,1.02-1.46,1.71-2.6,2.37-.7.35-1.35.81-1.92,1.35-.73.83-.39,4.62-.21,6.2.33,2.98.94,5.89,1.48,7.09.11.24.57.56,3.24.86,1.77.2,4.27.36,7.63.5,6.27.26,14.43.39,23.07.52,16.17.26,32.89.52,37.3,1.69,3.55.87,6.49,3.35,7.93,6.71h-.03Z"/>
      <path id="Tracé_942" data-name="Tracé 942" class="cls-2" d="m380.36,133.04l-.22-.08c4.35-12.63,4.02-23.18-.99-31.35-1.88-3.03-4.31-5.68-7.17-7.81-2.5-1.88-5.22-3.43-8.09-4.64-3-1.29-6.13-2.24-9.35-2.8h-5.29c-3.22.57-6.36,1.51-9.36,2.8-2.88,1.21-5.6,2.77-8.09,4.64-2.85,2.13-5.29,4.79-7.17,7.81-4.99,8.17-5.33,18.72-.99,31.34l-.22.08c-4.37-12.7-4.03-23.32,1-31.55,1.89-3.06,4.35-5.72,7.23-7.88,2.52-1.88,5.25-3.45,8.15-4.67,3.02-1.3,6.18-2.25,9.42-2.82h5.35c3.24.57,6.4,1.52,9.41,2.82,2.9,1.22,5.64,2.78,8.15,4.67,2.88,2.15,5.33,4.82,7.23,7.88,5.04,8.23,5.38,18.85,1.01,31.55h0Z"/>
      <path class="cls-2" d="m423.83,480.15h.23V193.37h-144.35v286.1h.23V193.6h143.88v286.55h0Z"/>
      <path class="cls-2" d="m279.95,479.47h-.23v.87h.23v-.87Z"/>
      <path id="Tracé_944" data-name="Tracé 944" class="cls-2" d="m348.3,171.17c.42,0,.73,0,.93.02h5.3c.2-.02.51-.02.92-.02,7.3,0,46.3,2.06,46.8,2.08.33,0,.67.04,1,.1.74.14,1.69.46,2.05,1.24.27.59.16,1.34-.33,2.22-1.18,2.07-3.08,3.66-5.33,4.45h-.03l-45.07.62h-5.31l-45.09-.62h-.02c-2.25-.81-4.14-2.38-5.33-4.45-.49-.88-.6-1.64-.33-2.22.2-.43.72-.99,2.06-1.24.33-.06.67-.09,1-.1.5-.03,39.4-2.08,46.78-2.08h0Zm6.24.25h-5.32c-.2,0-.51-.02-.93-.02-7.39,0-46.38,2.06-46.77,2.08h0c-.33,0-.64.04-.97.1-.69.13-1.57.43-1.88,1.11-.24.51-.14,1.19.32,2,1.15,2.02,2.99,3.55,5.18,4.34l45.06.62h5.31l45.06-.62c2.19-.78,4.03-2.32,5.18-4.34.45-.81.56-1.49.32-2-.33-.69-1.2-.99-1.88-1.11-.32-.06-.64-.09-.97-.1h0c-.39-.02-39.48-2.08-46.79-2.08-.4,0-.71,0-.91.02h0Z"/>
      <path class="cls-2" d="m264.92,480.35h.23v-.78h-.23v.77h0Z"/>
      <path class="cls-2" d="m265.53,171.27l.31-.1c.61-.21,4.21-.2,17.87.97,8.18.69,16.2,1.49,16.28,1.5l.03-.23c-1.17-.12-25.9-2.57-32.67-2.57-.53-.03-1.06,0-1.58.11l-.31.1c-2.07.69-3.72,1.22-3.72,2.47,0,.8,1.87,181.26,3.17,306.06h.23c-1.29-124.81-3.16-305.27-3.16-306.06,0-1.08,1.57-1.59,3.55-2.25h0Z"/>
      <path class="cls-2" d="m437.93,171.16l.31.1c1.99.66,3.56,1.17,3.56,2.25,0,.8-1.88,181.87-3.17,306.69h.23c1.29-124.82,3.17-305.89,3.17-306.69,0-1.24-1.64-1.78-3.72-2.47l-.31-.1c-2.18-.72-32.94,2.33-34.26,2.46l.03.23c.08,0,8.09-.81,16.28-1.5,13.66-1.16,17.26-1.16,17.88-.97h0Z"/>
      <path id="Tracé_946" data-name="Tracé 946" class="cls-2" d="m340.76,325.34h46.03v7.59h-32.27v7.63h32.27v93.87h-66.07v-7.85h51.52v-77.42h-31.49v-23.83h0Zm45.8.23h-45.57v23.37h31.49v77.88h-51.52v7.38h65.61v-93.4h-32.27v-8.09h32.27v-7.13h0Z"/>
      <path id="Tracé_947" data-name="Tracé 947" class="cls-2" d="m320.72,325.34h12.2v85.01h31.75v8.61h-43.95v-93.62h0Zm11.97.23h-11.74v93.16h43.49v-8.15h-31.75v-85.01h0Z"/>
      <path id="Rectangle_171" data-name="Rectangle 171" class="cls-2" d="m340.5,356.54h24.17v46.42h-24.17v-46.42Zm23.94.23h-23.71v45.96h23.71v-45.96Z"/>
    </g>
    <rect class="cls-1" x="49.82" y="68.83" width="600.64" height="411.14"/>
  </g>
  <rect class="cls-3" x=".25" y=".25" width="699.79" height="480"/>
</svg>