<?xml version="1.0" encoding="UTF-8"?>
<svg id="Calque_1" data-name="Calque 1" xmlns="http://www.w3.org/2000/svg" viewBox="0 0 700.72 481.78">
  <defs>
    <style>
      .cls-1, .cls-2, .cls-3, .cls-4 {
        fill: none;
      }

      .cls-2 {
        stroke-miterlimit: 10;
        stroke-width: .25px;
      }

      .cls-2, .cls-4 {
        stroke: #000;
      }

      .cls-3 {
        stroke: #161615;
      }

      .cls-3, .cls-4 {
        stroke-miterlimit: 10;
        stroke-width: .25px;
      }
    </style>
  </defs>
  <g id="Calque_1-2" data-name="Calque 1">
    <g id="Calque_2" data-name="Calque 2">
      <g id="BASE">
        <path id="Tracé_8" data-name="Tracé 8" class="cls-3" d="m348.4,423.7h56.2V107.8h-108.2v315.9h52"/>
        <path id="Tracé_9" data-name="Tracé 9" class="cls-3" d="m352.6,52.7h13.8c.7,0,6.9,1,6.9,1,.3.5.5,1,.7,1.5.3,1.8.3,3.6,0,5.3-.4,1.4-2.8,2.1-3.7,3.1-.9,1,.1,8.8,1,10.9s50,.9,57.3,2.9,7.4,9.7,7.4,9.7v371.7l-8,7.2h-155.1l-8-7.2V87.1s.1-7.7,7.4-9.7,56.4-.8,57.3-2.9,1.9-9.9,1-10.9-3.3-1.7-3.7-3.1c-.3-1.8-.3-3.6,0-5.3.2-.5.4-1,.7-1.5,0,0,6.1-1.1,6.9-1h18.1Z"/>
        <path id="Tracé_10" data-name="Tracé 10" class="cls-3" d="m373.3,53.7c11.4-34-20.7-38.7-20.7-38.7h-4.3s-32.1,4.7-20.7,38.6"/>
        <path id="Tracé_11" data-name="Tracé 11" class="cls-3" d="m352.6,103.6h55.9v323.3h-116V103.6h60.1Z"/>
        <path id="Tracé_12" data-name="Tracé 12" class="cls-3" d="m352.6,85.3c3.1-.2,38.4,1.7,38.4,1.7.3,0,.5,0,.8.1,1,.2,2.4.8,1.3,2.7-.9,1.7-2.4,3-4.2,3.6l-36.3.5h-4.3l-36.3-.5c-1.8-.7-3.3-1.9-4.2-3.6-1-1.9.4-2.5,1.3-2.7.3-.1.5-.1.8-.1,0,0,35.2-1.9,38.4-1.7h4.3Z"/>
        <path id="Tracé_13" data-name="Tracé 13" class="cls-3" d="m308.7,87.1s-25.8-2.6-27.5-2c-1.8.6-3.2,1-3.2,2s3.5,349,3.5,349c0,0-.8,8.1,7.1,8.8,7.9.6,46.7-2.6,59.8-2.5h4.3c13-.4,51.8,3.1,59.8,2.5,7.9-.6,7.1-8.8,7.1-8.8,0,0,3.5-348,3.5-349s-1.4-1.4-3.2-2c-1.8-.6-27.5,2-27.5,2"/>
      </g>
      <g>
        <polygon class="cls-4" points="329.9 210.3 336.6 210.3 336.6 270.9 357 270.9 357 274.9 329.9 274.9 329.9 210.3"/>
        <polygon class="cls-4" points="329.9 278.9 329.9 282.4 371.2 282.4 371.2 218 350.5 218 350.5 214.2 371.2 214.2 371.2 210.3 342 210.3 342 221.2 361.9 221.2 361.9 278.9 329.9 278.9"/>
        <rect class="cls-4" x="342.2" y="224.7" width="14.8" height="42.7"/>
      </g>
    </g>
    <g id="Calque_3" data-name="Calque 3">
      <circle class="cls-4" cx="577.8" cy="276" r="65.3"/>
      <polygon class="cls-4" points="577.8 276 700.6 480.6 700.6 353.6 577.8 276"/>
      <polygon class="cls-4" points=".4 366.2 261.7 480.1 .4 480.1 .4 366.2"/>
      <circle class="cls-4" cx="104.2" cy="399" r="49.4"/>
    </g>
    <rect class="cls-2" x="109.51" y="288.99" width="21.9" height="102.8" transform="translate(-240 319.41) rotate(-67.18)"/>
    <rect class="cls-2" x="87.77" y="250.08" width="21.9" height="115" transform="translate(-223.07 279.29) rotate(-67.18)"/>
    <rect class="cls-1" x=".4" width="700.3" height="480.6"/>
  </g>
  <g id="Calque_2-2" data-name="Calque 2-2">
    <line class="cls-4" x1=".4" y1="52.1" x2="292.5" y2="52.1"/>
    <line class="cls-4" x1=".4" y1="112" x2="264.9" y2="112"/>
    <line class="cls-4" x1="74.2" y1="332.8" x2="74.2" y2="359.7"/>
    <line class="cls-4" x1="74.2" y1="309.1" x2="74.2" y2="318.1"/>
    <line class="cls-4" x1="74.2" x2="74.2" y2="285.4"/>
    <line class="cls-4" x1="233.2" x2="233.2" y2="437.9"/>
    <line class="cls-4" x1="45.5" y1="52.1" x2="45.5" y2="112"/>
    <line class="cls-4" x1="200.6" x2="200.6" y2="52.1"/>
    <polyline class="cls-4" points="74.2 208.5 213.1 208.5 264.9 208.5"/>
    <line class="cls-4" x1="151.6" y1="412.9" x2="264.9" y2="412.9"/>
    <line class="cls-4" x1="233.2" y1="306.2" x2="123.6" y2="306.2"/>
    <line class="cls-4" x1="233.2" y1="360.9" x2="264.9" y2="360.9"/>
    <line class="cls-4" x1="480.8" x2="480.8" y2="240.2"/>
    <line class="cls-4" x1="540.3" y1=".4" x2="540.3" y2="222.5"/>
    <line class="cls-4" x1="632.4" y1="240.2" x2="700.6" y2="240.2"/>
    <line class="cls-4" x1="436" y1="240.2" x2="523.1" y2="240.2"/>
    <line class="cls-4" x1="436" y1="24.4" x2="700.6" y2="24.4"/>
    <line class="cls-4" x1="436" y1="87.1" x2="540.3" y2="87.1"/>
    <line class="cls-4" x1="436" y1="140.7" x2="480.8" y2="140.7"/>
    <line class="cls-4" x1="540.3" y1="140.7" x2="700.6" y2="140.7"/>
    <line class="cls-4" x1="480.8" y1="200.3" x2="540.3" y2="200.3"/>
  </g>
  <g id="Calque_2-2" data-name="Calque 2">
    <rect class="cls-1" y="1.78" width="700" height="480"/>
  </g>
</svg>