<?xml version="1.0" encoding="UTF-8"?>
<svg id="Calque_1" data-name="Calque 1" xmlns="http://www.w3.org/2000/svg" viewBox="0 0 700 480">
  <defs>
    <style>
      .cls-1, .cls-2 {
        fill: none;
      }

      .cls-2 {
        stroke: #000;
        stroke-miterlimit: 10;
        stroke-width: .25px;
      }
    </style>
  </defs>
  <polyline class="cls-2" points="315.1 45.55 315.1 99.65 365.39 129.45"/>
  <line class="cls-2" x1="62" y1="111.55" x2="111.4" y2="139.65"/>
  <line class="cls-2" x1="110.8" y1="218.45" x2="58.9" y2="245.95"/>
  <polyline class="cls-2" points="575.26 212.05 613.2 204.55 629.3 155.55"/>
  <polyline class="cls-2" points="240.7 295.95 288.8 324.75 358.8 283.65 430.8 324.75 508.2 299.25 521.61 252.44"/>
  <polyline class="cls-2" points="530 402.15 555.6 364.25 508.2 299.25"/>
  <polyline class="cls-2" points="481.5 423.15 430.8 407.55 430.8 324.75"/>
  <polyline class="cls-2" points="288.8 324.75 288.8 407.55 359.8 449.95 430.8 407.55"/>
  <line class="cls-2" x1="361.1" y1="430.65" x2="414.3" y2="398.95"/>
  <line class="cls-2" x1="303.8" y1="332.35" x2="303.8" y2="398.95"/>
  <line class="cls-2" x1="361.1" y1="299.25" x2="414.3" y2="332.35"/>
  <line class="cls-2" x1="501.2" y1="315.85" x2="540.2" y2="366.75"/>
  <polyline class="cls-2" points="505.4 433.75 505.4 412.45 520.6 433.75 520.6 412.45"/>
  <line class="cls-2" x1="505.4" y1="461.15" x2="505.4" y2="439.85"/>
  <line class="cls-2" x1="520.6" y1="461.15" x2="520.6" y2="439.85"/>
  <line class="cls-2" x1="505.4" y1="449.95" x2="520.6" y2="449.95"/>
  <ellipse class="cls-2" cx="222.5" cy="288.45" rx="9.2" ry="11.2"/>
  <line class="cls-2" x1="209.5" y1="277.75" x2="209.5" y2="299.15"/>
  <line class="cls-2" x1="197.25" y1="287.75" x2="209.5" y2="287.75"/>
  <line class="cls-2" x1="194" y1="277.75" x2="194" y2="280.76"/>
  <ellipse class="cls-2" cx="44.6" cy="245.45" rx="9.2" ry="11.2"/>
  <line class="cls-2" x1="32.4" y1="235.45" x2="32.4" y2="255.95"/>
  <ellipse class="cls-2" cx="48.2" cy="107.35" rx="9.2" ry="11.2"/>
  <line class="cls-2" x1="36.1" y1="97.35" x2="36.1" y2="117.35"/>
  <line class="cls-2" x1="21.5" y1="97.35" x2="21.5" y2="117.35"/>
  <line class="cls-2" x1="36.1" y1="106.65" x2="21.5" y2="106.65"/>
  <ellipse class="cls-2" cx="314.2" cy="31.35" rx="9.2" ry="11.2"/>
  <line class="cls-2" x1="325.8" y1="21.35" x2="325.8" y2="41.25"/>
  <line class="cls-2" x1="340.9" y1="21.35" x2="340.9" y2="41.35"/>
  <line class="cls-2" x1="325.8" y1="31.25" x2="340.9" y2="31.25"/>
  <polyline class="cls-2" points="630.9 147.55 630.9 126.25 646.1 147.55 646.1 126.25"/>
  <line class="cls-2" x1="650.2" y1="126.25" x2="650.2" y2="147.55"/>
  <line class="cls-2" x1="665.8" y1="126.25" x2="665.8" y2="147.55"/>
  <line class="cls-2" x1="650.2" y1="136.95" x2="665.8" y2="136.95"/>
  <path class="cls-2" d="m670.5,149.05s-.5-4.2,3.9-4.2,3.6,4.2,3.6,4.2c0,0-.6,1.7-3,3.4s-4.4,3-4.5,4.4h7.9"/>
  <g id="Calque_2" data-name="Calque 2">
    <path class="cls-2" d="m370.9,170.65c-3.7-1.6-15.1-7.9-27.5-29.1-.9-1.5-2-2.7-3.2-3.8-3.1-2.5-9.2-6-17.9-4.9-.1,0-.2,0-.3.1-1.1.5-7.5,3.9-8.5,16.3,0,0-.3,5,3.5,9.1s19,25,45.8,32c0,0,5.8,1.6,6.7,3.7s1.8,2.8-.3,11.8-9.6,30-3.7,64.9c4.3,25.1,19.5,25.6,27.6,23.8,3.9-.8,7.3-3.2,9.3-6.7,2.2-3.8,4-9.8,1.6-17.7-4.5-14.8-16.5-31.6-13.3-61.3,0,0,.4-3.7,3.1-1s22.5,12.5,31.3,30.6c8.8,18.1,29.5,30.3,39.6,17s-1-27.6-4.9-32c-3.8-4.4-30.5-33.3-54.8-35.4h-.1c-.8-.2-13.4-2.6-11.1-9.9,2.3-7.5,10.6-35,1.7-60.1,0,0-2.1-8.3-9.2-10.2s-18.4-7.7-22,11.3c0,0-2.1,8.3,6.4,21,7.2,10.7,3.2,25.7,1.8,30-.1.4-.9.8-1.6.5h0Z"/>
    <path class="cls-2" d="m523.4,220.15c1.5,4,6.7,16.2,17.4,22.6,2,1.2,3.8,2.6,5.2,4.3,2.8,3.3,6.1,8.6,3.8,13.7-3.7,8.2-11.5,8.3-17.6,3.9-5.9-4.3-20.8-22.6-21.5-44.3,0-.9-.8-1.7-1.7-1.7-1.4-.1-3.4,0-5,.8-2.7,1.4-17.6,5.7-28.5-1.7s1.5-16.8,4.8-16,17,8.7,23,6.1c0,0,1.7-.1.9-2.4s-4.4-11.4-12.5-15.2-3.7-14.7,3.7-16.4c7.3-1.8,6.8,2.1,11.3,7.5s8.7,13.2,9.3,21.1,10.9,1.3,12.9.8,10.5-4.3,31.4-.1,15.4,17.5,15.4,17.5c0,0-2.9,11.7-17.1,7.3-13.8-4.2-20.1-11.6-34.3-9.2-.7,0-1.1.7-.9,1.4h0Z"/>
    <path class="cls-2" d="m283.1,244.05s12.2-23.9,23.7-29.2,14.5,1.2,14.5,1.2c0,0,5.9,7.7-1,12.3-6.7,4.5-19.1,9.5-25.2,18.4-.3.4-.1,1,.3,1.2,1.5.7,4.8,1.6,8.7-.4,5.3-2.8,15.2-6.4,21.4,1.3,6.2,7.7-4.1,14.7-7.8,15.8s-17.9,1.9-24.7-2.6c-4-2.7-5.9-3.6-6.8-3.9-.4-.1-.8,0-1,.4-1.5,2.8-9.3,16.4-17.6,22.4-3,2.2-6.9,3-10.4,1.9-2-.6-3.9-1.9-4.4-4.4-.6-3.5.7-6.2,1.8-7.8.6-.9,1.5-1.6,2.5-2.1,2.7-1.2,9.7-4.9,16.5-12.8.4-.5.1-1.2-.5-1.2-1.4-.2-4.1,0-9.2,2.1,0,0-7.8,2.4-10.2-4-2.4-6.3.6-12.1,7.9-12.3,7.4-.2,11.1-1.4,16.5,2.9,0,0,3.2,2.2,5,.8h0Z"/>
    <path class="cls-2" d="m188,260.35s15-18.5,19.5-29.3c0,0,3.1-7.1,12.4-4.8s7.7,12.5,6.8,14.2c-.9,1.6-16.1,22.3-27.8,29.9-1.1.7-2.2,1.2-3.4,1.6-1.6.5-4.1,2.2-2.4,7.5,0,0,10.4,12.8,5.4,38.3-4.9,25.5-23.8,15-23.8,15,0,0-9.4-5.2-2.2-24.7,0,0,5.1-9.7,5.4-15.6,0,0-12.8,14.2-17.4,27.5-4.6,13.3-13.6,17.9-17.3,17.8-3.7-.2-11.7-.8-13.3-8.2s-.9-17.3,18.5-33.5,27.8-20.8,27.8-23.6-3.9-5.9-3.7-11.7,1.5-22.8,4-26.9,8.6-5.2,12-2.5,7.7,7.4,6.9,12.5-7.4,16.5-7.4,16.5h0Z"/>
  </g>
  <polyline class="cls-2" points="173.09 254.09 110.8 218.45 111.4 139.65 177.7 99.65 245.8 139.65 315.1 99.65"/>
  <polyline class="cls-2" points="245.8 139.65 245.8 218.45 225.82 230.29"/>
  <g id="Calque_2-2" data-name="Calque 2">
    <rect class="cls-1" width="700" height="480"/>
  </g>
</svg>